<?xml version="1.0" encoding="UTF-8" standalone="no"?>
<!-- Created with Inkscape (http://www.inkscape.org/) -->

<svg
   width="47.571247mm"
   height="46.135769mm"
   viewBox="0 0 47.571247 46.135769"
   version="1.1"
   id="svg56023"
   inkscape:version="1.1.2 (0a00cf5339, 2022-02-04)"
   sodipodi:docname="bluehats-logo-single.svg"
   xmlns:inkscape="http://www.inkscape.org/namespaces/inkscape"
   xmlns:sodipodi="http://sodipodi.sourceforge.net/DTD/sodipodi-0.dtd"
   xmlns="http://www.w3.org/2000/svg"
   xmlns:svg="http://www.w3.org/2000/svg">
  <sodipodi:namedview
     id="namedview56025"
     pagecolor="#ffffff"
     bordercolor="#666666"
     borderopacity="1.0"
     inkscape:pageshadow="2"
     inkscape:pageopacity="0.0"
     inkscape:pagecheckerboard="0"
     inkscape:document-units="mm"
     showgrid="false"
     fit-margin-top="0"
     fit-margin-left="0"
     fit-margin-right="0"
     fit-margin-bottom="0"
     inkscape:zoom="0.64052329"
     inkscape:cx="-94.454021"
     inkscape:cy="86.647903"
     inkscape:window-width="1850"
     inkscape:window-height="1016"
     inkscape:window-x="0"
     inkscape:window-y="0"
     inkscape:window-maximized="1"
     inkscape:current-layer="g2025-1-3-9" />
  <defs
     id="defs56020" />
  <g
     id="g2025-1-3-9"
     transform="matrix(0.23744306,0,0,0.23744306,0.36728228,8.2173302)"
     inkscape:label="logo-2-4"
     inkscape:groupmode="layer">
    <rect
       style="fill:none;fill-opacity:1;stroke:none;stroke-width:1.88504;stroke-linecap:round;stroke-dasharray:none;stroke-opacity:1"
       id="rect3440-5-6-8-4"
       width="200.34802"
       height="194.30246"
       x="-1.5468225"
       y="-34.607582"
       inkscape:label="rect3440"
       inkscape:export-filename="/home/helene/Boulot/git/bluehats-visuals/visuals/bluehats-logo-single.png"
       inkscape:export-xdpi="96"
       inkscape:export-ydpi="96" />
    <g
       id="g3934-5-7-2"
       transform="matrix(0.73836414,0,0,0.73836414,25.436838,6.5858684)">
      <g
         id="g20-9-47-5-8"
         inkscape:label="text"
         transform="matrix(0.59679441,0,0,0.59679441,-7.7340492,21.475807)">
        <path
           class="st0"
           d="m 33.696662,216.6681 c -2.399998,2.4 -6.299988,3.9 -10.999996,3.9 -4.999999,0 -8.999996,-1.2 -12.6999964,-5.9 v 5.4 H 3.3966722 v -65.10003 h 6.5999974 v 25.30001 c 3.7000004,-4.7 7.7999974,-5.8 12.6999964,-5.8 4.700008,0 8.599998,1.6 10.999996,3.9 4.499998,4.5 5.499998,11.90001 5.499998,19.10001 0,7.2 -1.1,14.60001 -5.499998,19.20001 z M 21.296676,180.36808 c -9.900006,0 -11.3000064,8.40001 -11.3000064,17.20001 0,8.80001 1.5000004,17.20001 11.3000064,17.20001 9.799988,0 11.199986,-8.4 11.199986,-17.20001 0,-8.8 -1.399998,-17.20001 -11.199986,-17.20001 z"
           id="path4-3-6-3-9"
           style="fill:#000091;fill-opacity:1;stroke-width:1" />
        <path
           class="st0"
           d="m 64.49665,220.0681 c -7.899997,0 -11.399997,-5.1 -11.399997,-11.99999 v -53.10004 h 6.599997 v 52.90003 c 0,4.4 1.5,6.6 6,6.6 h 3.499998 v 5.7 H 64.49665 Z"
           id="path6-6-5-5-7"
           style="fill:#000091;fill-opacity:1;stroke-width:1" />
        <path
           class="st0"
           d="m 108.59664,220.0681 v -5 c -3.20001,3.7 -7.70001,5.6 -12.700008,5.6 -4.799996,0 -8.899996,-1.5 -11.599994,-4.2 -3.199998,-3.1 -4.599998,-7.39999 -4.599998,-12.60001 v -28.70001 h 6.499998 v 27.70001 c 0,8.00001 4.199998,12.00001 10.999994,12.00001 6.799998,0 11.200008,-4.1 11.200008,-12.00001 v -27.70001 h 6.6 v 45.00002 h -6.4 z"
           id="path8-0-6-6-3"
           style="fill:#000091;fill-opacity:1;stroke-width:1" />
        <path
           class="st0"
           d="m 135.59665,199.26809 c 0,9.90001 4.6,15.50001 13.3,15.50001 5.2,0 8.20001,-1.6 11.80001,-5.09999 l 4.5,3.89999 c -4.60001,4.6 -8.90001,7 -16.50001,7 -12,0 -19.70001,-7.1 -19.70001,-23.00001 0,-14.60001 7.00001,-23.00001 18.50001,-23.00001 11.7,0 18.50001,8.3 18.50001,21.90001 v 2.9 h -30.40001 z m 22.4,-12.40001 c -1.9,-4.1 -5.69999,-6.8 -10.5,-6.8 -4.8,0 -8.6,2.7 -10.5,6.8 -1.1,2.40001 -1.2,3.80001 -1.4,7.50001 h 23.9 c -0.3,-3.7 -0.39999,-5.1 -1.5,-7.50001 z"
           id="path10-6-9-2-6"
           style="fill:#000091;fill-opacity:1;stroke-width:1" />
        <path
           class="st1"
           d="m 209.89667,220.0681 v -27.30001 c 0,-8.50001 -4.3,-13.20001 -12.19999,-13.20001 -7.90001,0 -12.40002,4.8 -12.40002,13.20001 v 27.30001 h -4.7 v -65.10003 h 4.7 v 26.20001 c 3.30001,-3.8 7.70001,-5.8 13.00001,-5.8 10.1,0 16.3,6.3 16.3,16.50001 v 28.20001 z"
           id="path12-2-3-9-1"
           style="fill:#417dc4;fill-opacity:1;stroke-width:1" />
        <path
           class="st1"
           d="m 257.5967,220.0681 v -4.4 c -3.8,3.7 -7.20001,4.9 -13.40001,4.9 -6.49999,0 -10.20001,-1.1 -13,-4 -2.00001,-2.1 -3.2,-5.3 -3.2,-8.6 0,-8.00001 5.8,-12.70001 15.40001,-12.70001 h 14.29999 v -4.9 c 0,-7.00001 -3.5,-10.80001 -12.39999,-10.80001 -6.20001,0 -9.40002,1.6 -12.20001,5.6 l -3.40001,-2.9 c 3.70001,-5.2 8.40001,-6.8 15.50001,-6.8 11.6,0 17.1,5.2 17.1,14.50001 v 30.20001 h -4.69999 z m 0,-21.00001 h -13.70001 c -7.6,0 -11.20001,3 -11.20001,8.90001 0,5.9 3.60001,8.6 11.50001,8.6 4.00001,0 7.90001,-0.4 11,-3.4 1.6,-1.6 2.5,-4.3 2.5,-8.40001 v -5.7 z"
           id="path14-6-7-1-29"
           style="fill:#417dc4;fill-opacity:1;stroke-width:1" />
        <path
           class="st1"
           d="m 291.39672,220.0681 c -7.00002,0 -10.60001,-4.8 -10.60001,-11.5 v -29.10002 h -6.00001 v -3.5 h 6.00001 v -14.1 h 4.7 v 14.1 h 10.00001 v 3.5 h -10.00001 v 29.20002 c 0,4.6 2.09999,7.3 6.80001,7.3 h 3.2 v 4.1 z"
           id="path16-1-4-2-3"
           style="fill:#417dc4;fill-opacity:1;stroke-width:1" />
        <path
           class="st1"
           d="m 322.89672,220.5681 c -7.7,0 -13.40001,-2 -17.8,-6.3 l 3.2,-3.2 c 3.49999,3.7 8.1,5.4 14.5,5.4 8.59999,0 13.3,-3 13.3,-8.99999 0,-4.60002 -2.7,-6.90002 -8.4,-7.40002 l -7.3,-0.6 c -8.9,-0.7 -13.3,-4.7 -13.3,-11.50001 0,-7.6 6.2,-12.5 15.8,-12.5 6,0 11.6,1.7 15.5,4.7 l -3.1,3.1 c -3.4,-2.5 -7.5,-3.8 -12.30001,-3.8 -7.19999,0 -11.2,3.1 -11.2,8.5 0,4.60001 2.70001,6.90001 9,7.40001 l 7.10001,0.6 c 7.3,0.6 12.9,2.9 12.9,11.50002 -0.2,8.09999 -7.1,13.09999 -17.9,13.09999 z"
           id="path18-8-5-7-1"
           style="fill:#417dc4;fill-opacity:1;stroke-width:1" />
      </g>
      <g
         id="g3881-7-25-0-9"
         style="display:inline"
         inkscape:label="hat"
         transform="translate(-92.771624,-35.193375)">
        <path
           style="fill:#000091;fill-opacity:1;stroke:none;stroke-width:0;stroke-linecap:round;stroke-dasharray:none"
           d="m 172.22375,139.94353 c -28.2555,-1.31284 -51.92165,-5.46373 -67.09385,-11.76783 -6.435585,-2.67401 -11.201337,-6.01094 -12.655439,-8.86121 -1.977741,-3.8767 1.639822,-8.31302 10.167139,-12.46827 5.55192,-2.70536 13.95926,-5.36181 21.86587,-6.908902 l 2.32354,-0.454649 2.96522,0.971151 c 12.09794,3.96225 28.0969,6.76195 44.32605,7.75675 5.71536,0.35033 17.66038,0.34814 22.91796,-0.004 10.8806,-0.72919 20.39828,-2.37517 28.31064,-4.89604 3.07046,-0.97824 16.03084,-5.914014 16.50822,-6.286915 0.44431,-0.347073 0.43453,-1.408815 -0.0164,-1.78308 -0.25876,-0.214751 -2.34302,-0.07943 -7.66192,0.497452 -15.26342,1.655453 -17.20188,1.755901 -33.88589,1.755901 -12.48462,0 -16.52934,-0.09202 -21.01943,-0.478228 -12.31184,-1.058981 -24.48046,-2.813469 -34.21186,-4.932719 -6.05091,-1.317731 -14.06502,-3.447743 -14.06502,-3.738237 0,-0.51863 5.74353,-33.531951 6.10907,-35.114432 1.72892,-7.48471 6.39977,-13.059747 12.20944,-14.572976 1.39336,-0.362924 6.18516,-0.415287 38.00296,-0.415287 25.36382,0 36.84455,0.09025 37.8458,0.297519 5.88243,1.217704 10.73032,6.412498 12.68431,13.591986 0.29591,1.087227 2.1892,11.862691 4.20732,23.945475 2.01811,12.082785 3.76893,22.144508 3.8907,22.359384 0.27614,0.487282 0.57791,0.573996 5.74263,1.650157 14.65819,3.05428 26.47938,8.33199 30.22852,13.49586 2.06522,2.84453 1.90359,4.80665 -0.6133,7.44534 -1.96466,2.05974 -4.36536,3.64228 -8.51613,5.61381 -13.93476,6.61873 -36.88479,11.15712 -65.98575,13.04875 -5.82915,0.3789 -28.33074,0.54382 -34.58036,0.25344 z"
           id="path2911-9-4-9-4"
           inkscape:label="fill" />
        <path
           id="path32-2-7-3-7"
           style="display:inline;fill:#ffffff;fill-opacity:1;stroke-width:1.58979"
           class="st1"
           sodipodi:type="inkscape:offset"
           inkscape:radius="0.69999999"
           inkscape:original="M 153.61719 35.6875 C 143.28363 35.6875 135.33546 43.794268 133.42773 56.353516 L 127.22656 92.283203 L 128.6582 92.601562 C 153.29976 100.07351 183.02737 103.57065 212.2793 102.29883 C 185.57102 107.06816 150.43739 103.41178 128.81641 95.462891 L 128.49805 95.462891 L 128.02148 95.621094 C 103.53889 100.07247 89.548828 108.02263 89.548828 117.40234 C 89.548828 132.18727 133.42682 144.26953 187.32031 144.26953 C 241.69072 144.26953 285.88672 132.18651 285.88672 117.56055 C 285.88672 108.33982 272.21503 100.54981 248.52734 95.939453 L 242.00977 56.513672 C 240.10204 43.636468 231.99291 35.6875 221.02344 35.6875 L 153.61719 35.6875 z M 153.45898 38.548828 L 221.02344 38.548828 C 232.15189 38.548828 237.55826 47.928094 238.83008 56.671875 L 245.82422 98.324219 L 246.9375 98.482422 C 268.71746 102.61585 282.70703 109.92921 282.70703 117.24219 C 282.70703 128.37064 241.85048 140.92969 187.16211 140.92969 C 131.3609 140.92969 92.570312 128.52962 92.570312 117.24219 C 92.570312 109.92921 106.55948 102.61703 128.02148 98.642578 C 155.0477 108.34021 201.94643 111.67768 228.97266 100.86719 L 240.10156 96.576172 L 228.33594 97.847656 C 194.79162 101.34517 159.34062 98.483238 130.72461 89.898438 L 136.44727 56.671875 C 138.19603 45.702406 144.87416 38.548828 153.45898 38.548828 z "
           transform="matrix(1.019292,0,0,1.019292,-3.6426383,-2.2793608)"
           inkscape:label="stroke"
           d="m 153.61719,34.988281 c -10.69967,0 -18.9365,8.459337 -20.88086,21.259766 l -6.19922,35.916015 a 0.70006999,0.70006999 0 0 0 0.53711,0.802735 l 1.42578,0.316406 0.006,0.002 c 20.83001,6.309979 45.248,9.745754 69.94922,9.921874 -24.03593,1.75325 -51.46059,-1.80631 -69.39649,-8.400389 a 0.70006999,0.70006999 0 0 0 -0.24218,-0.04297 h -0.31836 a 0.70006999,0.70006999 0 0 0 -0.22071,0.03516 l -0.43359,0.144531 c -12.26385,2.23387 -21.92611,5.338211 -28.583984,9.111331 -6.66798,3.77884 -10.410157,8.30978 -10.410157,13.34765 0,4.04247 2.962598,7.74848 8.015625,11.02344 5.053026,3.27496 12.277026,6.18255 21.173826,8.62891 17.79362,4.89272 42.2822,7.91406 69.28125,7.91406 27.23706,0 51.92381,-3.02011 69.85547,-7.89258 8.96583,-2.43623 16.24218,-5.33054 21.33203,-8.58203 5.08986,-3.25149 8.07813,-6.92457 8.07813,-10.93359 0,-4.95633 -3.65899,-9.4075 -10.14649,-13.14649 -6.39521,-3.6858 -15.64634,-6.750885 -27.29883,-9.054685 l -6.4375,-38.949219 -0.002,-0.0059 C 240.75566,43.287585 232.32927,34.988281 221.02344,34.988281 Z m -0.15821,4.259766 h 67.56446 c 5.36756,0 9.27299,2.227889 12.06445,5.535156 2.79146,3.307267 4.42812,7.722876 5.04883,11.990235 a 0.70006999,0.70006999 0 0 0 0.004,0.01367 l 6.99415,41.652344 a 0.70006999,0.70006999 0 0 0 0.59179,0.578125 l 1.09571,0.15625 c 10.83517,2.057492 19.72012,4.907552 25.84179,8.115232 3.06239,1.60466 5.43103,3.30056 7.00391,4.99414 1.57288,1.69359 2.33984,3.35392 2.33984,4.95899 0,1.17689 -0.54047,2.42952 -1.6914,3.7539 -1.15094,1.32439 -2.90285,2.69174 -5.20118,4.03711 -4.59665,2.69075 -11.36609,5.29395 -19.85156,7.54883 -16.97093,4.50976 -40.81096,7.64844 -68.10156,7.64844 -27.84875,0 -51.4493,-3.09941 -68.03906,-7.58789 -8.29489,-2.24424 -14.83834,-4.84085 -19.255862,-7.53516 -4.417521,-2.6943 -6.597657,-5.44431 -6.597657,-7.86523 0,-1.60507 0.767968,-3.26607 2.335938,-4.95703 1.567969,-1.69096 3.924611,-3.3802 6.966801,-4.97461 6.05329,-3.17255 14.81133,-5.97072 25.41992,-7.947269 27.24601,9.713739 73.96373,13.059819 101.23242,2.156249 l 0.008,-0.002 11.1211,-4.289064 a 0.70006999,0.70006999 0 0 0 -0.32813,-1.347657 l -11.76562,1.271485 c -33.22604,3.463826 -68.33415,0.6524 -96.73633,-7.763672 l 5.61328,-32.597656 a 0.70006999,0.70006999 0 0 0 0.002,-0.0098 c 1.71259,-10.742586 8.12436,-17.533203 16.32031,-17.533203 z" />
      </g>
    </g>
  </g>
</svg>
