<?xml version="1.0" encoding="UTF-8" standalone="no"?>
<!-- Created with Inkscape (http://www.inkscape.org/) -->

<svg
   width="35.799999mm"
   height="27.114681mm"
   viewBox="0 0 35.799999 27.114681"
   version="1.1"
   id="svg14124"
   inkscape:export-filename="/home/helene/Boulot/git/bluehats-visuals/visuals/bluehats-logo-single.png"
   inkscape:export-xdpi="96"
   inkscape:export-ydpi="96"
   inkscape:version="1.1.2 (0a00cf5339, 2022-02-04)"
   sodipodi:docname="bluehats-logo-single.svg"
   xmlns:inkscape="http://www.inkscape.org/namespaces/inkscape"
   xmlns:sodipodi="http://sodipodi.sourceforge.net/DTD/sodipodi-0.dtd"
   xmlns="http://www.w3.org/2000/svg"
   xmlns:svg="http://www.w3.org/2000/svg">
  <sodipodi:namedview
     id="namedview14126"
     pagecolor="#ffffff"
     bordercolor="#666666"
     borderopacity="1.0"
     inkscape:pageshadow="2"
     inkscape:pageopacity="0.0"
     inkscape:pagecheckerboard="0"
     inkscape:document-units="mm"
     showgrid="false"
     fit-margin-top="0"
     fit-margin-left="0"
     fit-margin-right="0"
     fit-margin-bottom="0"
     inkscape:zoom="0.64052329"
     inkscape:cx="145.9744"
     inkscape:cy="199.05599"
     inkscape:window-width="1850"
     inkscape:window-height="1016"
     inkscape:window-x="0"
     inkscape:window-y="0"
     inkscape:window-maximized="1"
     inkscape:current-layer="svg14124" />
  <defs
     id="defs14121" />
  <g
     id="g3934-5-7-2"
     transform="matrix(0.17531944,0,0,0.17531944,1.2578076,0.26112603)">
    <g
       id="g20-9-47-5-8"
       inkscape:label="text"
       transform="matrix(0.59679441,0,0,0.59679441,-7.7340492,21.475807)">
      <path
         class="st0"
         d="m 33.696662,216.6681 c -2.399998,2.4 -6.299988,3.9 -10.999996,3.9 -4.999999,0 -8.999996,-1.2 -12.6999964,-5.9 v 5.4 H 3.3966722 v -65.10003 h 6.5999974 v 25.30001 c 3.7000004,-4.7 7.7999974,-5.8 12.6999964,-5.8 4.700008,0 8.599998,1.6 10.999996,3.9 4.499998,4.5 5.499998,11.90001 5.499998,19.10001 0,7.2 -1.1,14.60001 -5.499998,19.20001 z M 21.296676,180.36808 c -9.900006,0 -11.3000064,8.40001 -11.3000064,17.20001 0,8.80001 1.5000004,17.20001 11.3000064,17.20001 9.799988,0 11.199986,-8.4 11.199986,-17.20001 0,-8.8 -1.399998,-17.20001 -11.199986,-17.20001 z"
         id="path4-3-6-3-9"
         style="fill:#000091;fill-opacity:1;stroke-width:1" />
      <path
         class="st0"
         d="m 64.49665,220.0681 c -7.899997,0 -11.399997,-5.1 -11.399997,-11.99999 v -53.10004 h 6.599997 v 52.90003 c 0,4.4 1.5,6.6 6,6.6 h 3.499998 v 5.7 H 64.49665 Z"
         id="path6-6-5-5-7"
         style="fill:#000091;fill-opacity:1;stroke-width:1" />
      <path
         class="st0"
         d="m 108.59664,220.0681 v -5 c -3.20001,3.7 -7.70001,5.6 -12.700008,5.6 -4.799996,0 -8.899996,-1.5 -11.599994,-4.2 -3.199998,-3.1 -4.599998,-7.39999 -4.599998,-12.60001 v -28.70001 h 6.499998 v 27.70001 c 0,8.00001 4.199998,12.00001 10.999994,12.00001 6.799998,0 11.200008,-4.1 11.200008,-12.00001 v -27.70001 h 6.6 v 45.00002 h -6.4 z"
         id="path8-0-6-6-3"
         style="fill:#000091;fill-opacity:1;stroke-width:1" />
      <path
         class="st0"
         d="m 135.59665,199.26809 c 0,9.90001 4.6,15.50001 13.3,15.50001 5.2,0 8.20001,-1.6 11.80001,-5.09999 l 4.5,3.89999 c -4.60001,4.6 -8.90001,7 -16.50001,7 -12,0 -19.70001,-7.1 -19.70001,-23.00001 0,-14.60001 7.00001,-23.00001 18.50001,-23.00001 11.7,0 18.50001,8.3 18.50001,21.90001 v 2.9 h -30.40001 z m 22.4,-12.40001 c -1.9,-4.1 -5.69999,-6.8 -10.5,-6.8 -4.8,0 -8.6,2.7 -10.5,6.8 -1.1,2.40001 -1.2,3.80001 -1.4,7.50001 h 23.9 c -0.3,-3.7 -0.39999,-5.1 -1.5,-7.50001 z"
         id="path10-6-9-2-6"
         style="fill:#000091;fill-opacity:1;stroke-width:1" />
      <path
         class="st1"
         d="m 209.89667,220.0681 v -27.30001 c 0,-8.50001 -4.3,-13.20001 -12.19999,-13.20001 -7.90001,0 -12.40002,4.8 -12.40002,13.20001 v 27.30001 h -4.7 v -65.10003 h 4.7 v 26.20001 c 3.30001,-3.8 7.70001,-5.8 13.00001,-5.8 10.1,0 16.3,6.3 16.3,16.50001 v 28.20001 z"
         id="path12-2-3-9-1"
         style="fill:#417dc4;fill-opacity:1;stroke-width:1" />
      <path
         class="st1"
         d="m 257.5967,220.0681 v -4.4 c -3.8,3.7 -7.20001,4.9 -13.40001,4.9 -6.49999,0 -10.20001,-1.1 -13,-4 -2.00001,-2.1 -3.2,-5.3 -3.2,-8.6 0,-8.00001 5.8,-12.70001 15.40001,-12.70001 h 14.29999 v -4.9 c 0,-7.00001 -3.5,-10.80001 -12.39999,-10.80001 -6.20001,0 -9.40002,1.6 -12.20001,5.6 l -3.40001,-2.9 c 3.70001,-5.2 8.40001,-6.8 15.50001,-6.8 11.6,0 17.1,5.2 17.1,14.50001 v 30.20001 h -4.69999 z m 0,-21.00001 h -13.70001 c -7.6,0 -11.20001,3 -11.20001,8.90001 0,5.9 3.60001,8.6 11.50001,8.6 4.00001,0 7.90001,-0.4 11,-3.4 1.6,-1.6 2.5,-4.3 2.5,-8.40001 v -5.7 z"
         id="path14-6-7-1-29"
         style="fill:#417dc4;fill-opacity:1;stroke-width:1" />
      <path
         class="st1"
         d="m 291.39672,220.0681 c -7.00002,0 -10.60001,-4.8 -10.60001,-11.5 v -29.10002 h -6.00001 v -3.5 h 6.00001 v -14.1 h 4.7 v 14.1 h 10.00001 v 3.5 h -10.00001 v 29.20002 c 0,4.6 2.09999,7.3 6.80001,7.3 h 3.2 v 4.1 z"
         id="path16-1-4-2-3"
         style="fill:#417dc4;fill-opacity:1;stroke-width:1" />
      <path
         class="st1"
         d="m 322.89672,220.5681 c -7.7,0 -13.40001,-2 -17.8,-6.3 l 3.2,-3.2 c 3.49999,3.7 8.1,5.4 14.5,5.4 8.59999,0 13.3,-3 13.3,-8.99999 0,-4.60002 -2.7,-6.90002 -8.4,-7.40002 l -7.3,-0.6 c -8.9,-0.7 -13.3,-4.7 -13.3,-11.50001 0,-7.6 6.2,-12.5 15.8,-12.5 6,0 11.6,1.7 15.5,4.7 l -3.1,3.1 c -3.4,-2.5 -7.5,-3.8 -12.30001,-3.8 -7.19999,0 -11.2,3.1 -11.2,8.5 0,4.60001 2.70001,6.90001 9,7.40001 l 7.10001,0.6 c 7.3,0.6 12.9,2.9 12.9,11.50002 -0.2,8.09999 -7.1,13.09999 -17.9,13.09999 z"
         id="path18-8-5-7-1"
         style="fill:#417dc4;fill-opacity:1;stroke-width:1" />
    </g>
    <g
       id="g3881-7-25-0-9"
       style="display:inline"
       inkscape:label="hat"
       transform="translate(-92.771624,-35.193375)">
      <path
         class="fil0"
         d="m 250.56124,97.014451 c 24.07584,4.458489 39.23469,12.483759 39.23469,21.400729 0,14.26716 -46.36826,26.75092 -102.54519,26.75092 -56.17692,0 -101.653492,-12.48376 -101.653492,-26.75092 0,-8.91697 15.158852,-16.94224 39.234672,-21.400729 29.42602,10.700359 78.46937,13.375459 106.11199,2.67509 -34.7762,3.566789 -73.11919,0.891699 -105.22029,-8.916974 l 6.24188,-36.559592 c 1.7834,-11.59206 8.91697,-20.50903 19.61735,-20.50903 h 71.33578 c 11.59207,0 18.72565,8.91697 20.50904,20.50903 z"
         id="path2420-56"
         style="display:inline;fill:#000091;fill-opacity:1;stroke-width:0.891697"
         inkscape:label="fill" />
    </g>
  </g>
</svg>
