<?xml version="1.0" encoding="UTF-8" standalone="no"?>
<svg
   width="80"
   height="80"
   viewBox="0 0 80 80"
   fill="none"
   version="1.1"
   id="svg44"
   sodipodi:docname="bluehats-icon.svg"
   inkscape:version="1.1.2 (0a00cf5339, 2022-02-04)"
   inkscape:export-filename="/home/helene/Boulot/git/bluehats-visuals/visuals/bluehats-icon-64.png"
   inkscape:export-xdpi="76.800003"
   inkscape:export-ydpi="76.800003"
   xmlns:inkscape="http://www.inkscape.org/namespaces/inkscape"
   xmlns:sodipodi="http://sodipodi.sourceforge.net/DTD/sodipodi-0.dtd"
   xmlns="http://www.w3.org/2000/svg"
   xmlns:svg="http://www.w3.org/2000/svg">
  <defs
     id="defs48" />
  <sodipodi:namedview
     id="namedview46"
     pagecolor="#ffffff"
     bordercolor="#666666"
     borderopacity="1.0"
     inkscape:pageshadow="2"
     inkscape:pageopacity="0.0"
     inkscape:pagecheckerboard="0"
     showgrid="false"
     inkscape:snap-bbox="true"
     inkscape:snap-others="true"
     inkscape:object-nodes="true"
     inkscape:snap-object-midpoints="true"
     inkscape:zoom="4.7641643"
     inkscape:cx="-1.574253"
     inkscape:cy="70.001784"
     inkscape:window-width="1850"
     inkscape:window-height="1016"
     inkscape:window-x="0"
     inkscape:window-y="0"
     inkscape:window-maximized="1"
     inkscape:current-layer="g3881"
     inkscape:snap-page="true"
     inkscape:snap-center="true"
     inkscape:bbox-paths="true"
     inkscape:bbox-nodes="true"
     inkscape:snap-bbox-edge-midpoints="true"
     inkscape:snap-bbox-midpoints="true"
     inkscape:object-paths="true"
     inkscape:snap-intersection-paths="true"
     inkscape:snap-smooth-nodes="true"
     inkscape:snap-midpoints="true" />
  <g
     id="g3881"
     style="display:inline"
     inkscape:label="hat"
     transform="matrix(0.27784523,0,0,0.27784523,-12.150602,15.150906)">
    <path
       id="path32-3"
       style="display:inline;fill:#000091;fill-opacity:1;stroke-width:1.58979"
       class="st1"
       sodipodi:type="inkscape:offset"
       inkscape:radius="2"
       inkscape:original="M 153.61719 35.6875 C 143.28363 35.6875 135.33546 43.794268 133.42773 56.353516 L 127.22656 92.283203 L 128.6582 92.601562 C 153.29976 100.07351 183.02737 103.57065 212.2793 102.29883 C 185.57102 107.06816 150.43739 103.41178 128.81641 95.462891 L 128.49805 95.462891 L 128.02148 95.621094 C 103.53889 100.07247 89.548828 108.02263 89.548828 117.40234 C 89.548828 132.18727 133.42682 144.26953 187.32031 144.26953 C 241.69072 144.26953 285.88672 132.18651 285.88672 117.56055 C 285.88672 108.33982 272.21503 100.54981 248.52734 95.939453 L 242.00977 56.513672 C 240.10204 43.636468 231.99291 35.6875 221.02344 35.6875 L 153.61719 35.6875 z M 153.45898 38.548828 L 221.02344 38.548828 C 232.15189 38.548828 237.55826 47.928094 238.83008 56.671875 L 245.82422 98.324219 L 246.9375 98.482422 C 268.71746 102.61585 282.70703 109.92921 282.70703 117.24219 C 282.70703 128.37064 241.85048 140.92969 187.16211 140.92969 C 131.3609 140.92969 92.570312 128.52962 92.570312 117.24219 C 92.570312 109.92921 106.55948 102.61703 128.02148 98.642578 C 155.0477 108.34021 201.94643 111.67768 228.97266 100.86719 L 240.10156 96.576172 L 228.33594 97.847656 C 194.79162 101.34517 159.34062 98.483238 130.72461 89.898438 L 136.44727 56.671875 C 138.19603 45.702406 144.87416 38.548828 153.45898 38.548828 z "
       transform="matrix(1.4386014,0,0,1.4386014,-82.492608,-40.008197)"
       inkscape:label="stroke"
       d="m 153.61719,33.6875 c -11.37957,0 -20.15362,9.116898 -22.16602,22.365234 l -6.19531,35.890625 a 2.0002,2.0002 0 0 0 1.30273,1.94336 c -11.83447,2.23349 -21.28483,5.264731 -27.941402,9.037111 -6.872527,3.89476 -11.06836,8.79431 -11.06836,14.47851 0,4.68549 3.375499,8.72112 8.609375,12.11328 5.233877,3.39217 12.557167,6.32429 21.535157,8.79297 17.95598,4.93737 42.53075,7.96094 69.62695,7.96094 27.33336,0 52.10521,-3.0234 70.19727,-7.93945 9.04603,-2.45803 16.42152,-5.37374 21.6914,-8.74024 5.26989,-3.36649 8.67774,-7.36555 8.67774,-12.02929 0,-5.59884 -4.10961,-10.41624 -10.79883,-14.27149 -6.42035,-3.700286 -15.50094,-6.708674 -26.80859,-9.00781 l -6.29102,-38.060547 -0.002,-0.0059 C 241.97383,42.646445 232.95726,33.6875 221.02344,33.6875 Z m -0.15821,6.861328 h 67.56446 c 5.00234,0 8.48344,2.007397 11.07031,5.072266 2.58687,3.064869 4.16534,7.264662 4.75781,11.33789 a 2.0002,2.0002 0 0 0 0.006,0.04492 l 6.99414,41.652344 a 2.0002,2.0002 0 0 0 1.69141,1.64844 l 1.04687,0.14843 c 10.74201,2.04066 19.52772,4.87424 25.47071,7.98829 2.97408,1.55838 5.22805,3.19086 6.65429,4.72656 1.42625,1.5357 1.99219,2.88363 1.99219,4.07422 0,0.77916 -0.35581,1.73211 -1.37109,2.90039 -1.01528,1.16828 -2.66048,2.47207 -4.87696,3.76953 -4.43294,2.59492 -11.11742,5.17874 -19.52929,7.41406 -16.82375,4.47065 -40.57649,7.60352 -67.76758,7.60352 -27.75246,0 -51.26365,-3.09426 -67.69922,-7.54102 -8.21778,-2.22338 -14.66943,-4.79938 -18.91797,-7.39062 -4.248534,-2.59124 -5.974607,-5.07954 -5.974608,-6.75586 0,-1.19061 0.566764,-2.53925 1.988282,-4.07227 1.421518,-1.53302 3.663836,-3.16113 6.617186,-4.70898 5.81953,-3.05003 14.40477,-5.79145 24.78516,-7.74805 27.64628,9.7377 74.02118,13.09171 101.73047,2.01953 l 0.008,-0.002 11.12109,-4.289064 a 2.0002,2.0002 0 0 0 -0.93359,-3.853515 l -11.76563,1.271484 C 195.48589,99.26111 161.0113,96.544284 133.00586,88.4375 l 5.41211,-31.425781 a 2.0002,2.0002 0 0 0 0.004,-0.02539 c 1.64541,-10.321233 7.56333,-16.4375 15.0371,-16.4375 z"
       inkscape:export-filename="/home/helene/Boulot/git/bluehats-visuals/visuals/bluehats-icon-64.png"
       inkscape:export-xdpi="195.23477"
       inkscape:export-ydpi="195.23477" />
    <path
       class="fil0"
       d="m 275.88035,100.08374 c 33.82539,6.26397 55.12285,17.53905 55.12285,30.06698 0,20.04468 -65.14523,37.58383 -144.07111,37.58383 -78.92596,0 -142.818406,-17.53915 -142.818406,-37.58383 0,-12.52793 21.297452,-23.80301 55.122868,-30.06698 41.342188,15.03349 110.245778,18.7919 149.082378,3.75833 -48.85899,5.01119 -102.72906,1.25285 -147.82953,-12.527852 l 8.7695,-51.364524 c 2.50557,-16.286347 12.52795,-28.814205 27.56143,-28.814205 h 100.22344 c 16.28633,0 26.30864,12.527858 28.8142,28.814205 z"
       id="path2420-56"
       style="display:none;fill:#000091;fill-opacity:1;stroke-width:1.2528"
       inkscape:label="fill"
       transform="translate(2.4812837e-6)" />
  </g>
</svg>
