<?xml version="1.0" encoding="UTF-8" standalone="no"?>
<!-- Created with Inkscape (http://www.inkscape.org/) -->

<svg
   width="36.006134mm"
   height="19.653999mm"
   viewBox="0 0 36.006134 19.653999"
   version="1.1"
   id="svg14770"
   inkscape:version="1.1.2 (0a00cf5339, 2022-02-04)"
   sodipodi:docname="bluehats-icon.svg"
   inkscape:export-filename="/home/helene/Boulot/git/bluehats-visuals/visuals/bluehats-icon-64.png"
   inkscape:export-xdpi="82.710907"
   inkscape:export-ydpi="82.710907"
   xmlns:inkscape="http://www.inkscape.org/namespaces/inkscape"
   xmlns:sodipodi="http://sodipodi.sourceforge.net/DTD/sodipodi-0.dtd"
   xmlns="http://www.w3.org/2000/svg"
   xmlns:svg="http://www.w3.org/2000/svg">
  <sodipodi:namedview
     id="namedview14772"
     pagecolor="#ffffff"
     bordercolor="#666666"
     borderopacity="1.0"
     inkscape:pageshadow="2"
     inkscape:pageopacity="0.0"
     inkscape:pagecheckerboard="0"
     inkscape:document-units="mm"
     showgrid="false"
     fit-margin-top="0"
     fit-margin-left="0"
     fit-margin-right="0"
     fit-margin-bottom="0"
     inkscape:zoom="2.461034"
     inkscape:cx="1.8284997"
     inkscape:cy="103.41182"
     inkscape:window-width="1850"
     inkscape:window-height="1016"
     inkscape:window-x="0"
     inkscape:window-y="0"
     inkscape:window-maximized="1"
     inkscape:current-layer="g3881" />
  <defs
     id="defs14767" />
  <g
     id="g3881"
     style="display:inline"
     inkscape:label="hat"
     transform="matrix(0.17532063,0,0,0.17532063,-14.695649,-6.1070557)">
    <path
       id="path32"
       style="display:inline;fill:#000091;fill-opacity:1;stroke-width:1.58979"
       class="st1"
       sodipodi:type="inkscape:offset"
       inkscape:radius="0.69999999"
       inkscape:original="M 153.61719 35.6875 C 143.28363 35.6875 135.33546 43.794268 133.42773 56.353516 L 127.22656 92.283203 L 128.6582 92.601562 C 153.29976 100.07351 183.02737 103.57065 212.2793 102.29883 C 185.57102 107.06816 150.43739 103.41178 128.81641 95.462891 L 128.49805 95.462891 L 128.02148 95.621094 C 103.53889 100.07247 89.548828 108.02263 89.548828 117.40234 C 89.548828 132.18727 133.42682 144.26953 187.32031 144.26953 C 241.69072 144.26953 285.88672 132.18651 285.88672 117.56055 C 285.88672 108.33982 272.21503 100.54981 248.52734 95.939453 L 242.00977 56.513672 C 240.10204 43.636468 231.99291 35.6875 221.02344 35.6875 L 153.61719 35.6875 z M 153.45898 38.548828 L 221.02344 38.548828 C 232.15189 38.548828 237.55826 47.928094 238.83008 56.671875 L 245.82422 98.324219 L 246.9375 98.482422 C 268.71746 102.61585 282.70703 109.92921 282.70703 117.24219 C 282.70703 128.37064 241.85048 140.92969 187.16211 140.92969 C 131.3609 140.92969 92.570312 128.52962 92.570312 117.24219 C 92.570312 109.92921 106.55948 102.61703 128.02148 98.642578 C 155.0477 108.34021 201.94643 111.67768 228.97266 100.86719 L 240.10156 96.576172 L 228.33594 97.847656 C 194.79162 101.34517 159.34062 98.483238 130.72461 89.898438 L 136.44727 56.671875 C 138.19603 45.702406 144.87416 38.548828 153.45898 38.548828 z "
       transform="matrix(1.019292,0,0,1.019292,-3.6426383,-2.2793608)"
       inkscape:label="stroke"
       d="m 153.61719,34.988281 c -10.69967,0 -18.9365,8.459337 -20.88086,21.259766 l -6.19922,35.916015 a 0.70006999,0.70006999 0 0 0 0.53711,0.802735 l 1.42578,0.316406 0.006,0.002 c 20.83001,6.309979 45.248,9.745754 69.94922,9.921874 -24.03593,1.75325 -51.46059,-1.80631 -69.39649,-8.400389 a 0.70006999,0.70006999 0 0 0 -0.24218,-0.04297 h -0.31836 a 0.70006999,0.70006999 0 0 0 -0.22071,0.03516 l -0.43359,0.144531 c -12.26385,2.23387 -21.92611,5.338211 -28.583984,9.111331 -6.66798,3.77884 -10.410157,8.30978 -10.410157,13.34765 0,4.04247 2.962598,7.74848 8.015625,11.02344 5.053026,3.27496 12.277026,6.18255 21.173826,8.62891 17.79362,4.89272 42.2822,7.91406 69.28125,7.91406 27.23706,0 51.92381,-3.02011 69.85547,-7.89258 8.96583,-2.43623 16.24218,-5.33054 21.33203,-8.58203 5.08986,-3.25149 8.07813,-6.92457 8.07813,-10.93359 0,-4.95633 -3.65899,-9.4075 -10.14649,-13.14649 -6.39521,-3.6858 -15.64634,-6.750885 -27.29883,-9.054685 l -6.4375,-38.949219 -0.002,-0.0059 C 240.75566,43.287585 232.32927,34.988281 221.02344,34.988281 Z m -0.15821,4.259766 h 67.56446 c 5.36756,0 9.27299,2.227889 12.06445,5.535156 2.79146,3.307267 4.42812,7.722876 5.04883,11.990235 a 0.70006999,0.70006999 0 0 0 0.004,0.01367 l 6.99415,41.652344 a 0.70006999,0.70006999 0 0 0 0.59179,0.578125 l 1.09571,0.15625 c 10.83517,2.057492 19.72012,4.907552 25.84179,8.115232 3.06239,1.60466 5.43103,3.30056 7.00391,4.99414 1.57288,1.69359 2.33984,3.35392 2.33984,4.95899 0,1.17689 -0.54047,2.42952 -1.6914,3.7539 -1.15094,1.32439 -2.90285,2.69174 -5.20118,4.03711 -4.59665,2.69075 -11.36609,5.29395 -19.85156,7.54883 -16.97093,4.50976 -40.81096,7.64844 -68.10156,7.64844 -27.84875,0 -51.4493,-3.09941 -68.03906,-7.58789 -8.29489,-2.24424 -14.83834,-4.84085 -19.255862,-7.53516 -4.417521,-2.6943 -6.597657,-5.44431 -6.597657,-7.86523 0,-1.60507 0.767968,-3.26607 2.335938,-4.95703 1.567969,-1.69096 3.924611,-3.3802 6.966801,-4.97461 6.05329,-3.17255 14.81133,-5.97072 25.41992,-7.947269 27.24601,9.713739 73.96373,13.059819 101.23242,2.156249 l 0.008,-0.002 11.1211,-4.289064 a 0.70006999,0.70006999 0 0 0 -0.32813,-1.347657 l -11.76562,1.271485 c -33.22604,3.463826 -68.33415,0.6524 -96.73633,-7.763672 l 5.61328,-32.597656 a 0.70006999,0.70006999 0 0 0 0.002,-0.0098 c 1.71259,-10.742586 8.12436,-17.533203 16.32031,-17.533203 z" />
    <path
       class="fil0"
       d="m 249.73432,98.508244 c 24.21429,4.484126 39.46031,12.555516 39.46031,21.523786 0,14.3492 -46.63494,26.90479 -103.13491,26.90479 -56.50003,0 -102.238157,-12.55559 -102.238157,-26.90479 0,-8.96827 15.24602,-17.03966 39.460317,-21.523786 29.59528,10.761886 78.92068,13.452386 106.72229,2.690436 -34.97625,3.58732 -73.53974,0.89687 -105.82542,-8.968203 l 6.27775,-36.769866 c 1.79364,-11.658764 8.96827,-20.626971 19.73016,-20.626971 h 71.74606 c 11.65876,0 18.83334,8.968207 20.62697,20.626971 z"
       id="path2420-56"
       style="display:none;fill:#000091;fill-opacity:1;stroke-width:0.896827"
       inkscape:label="fill" />
  </g>
</svg>
